<!-- icon666.com - MILLIONS vector ICONS FREE --><svg viewBox="0 0 512 512" xmlns="http://www.w3.org/2000/svg"><path d="m437.019531 74.980469c-48.351562-48.351563-112.640625-74.980469-181.019531-74.980469s-132.667969 26.628906-181.019531 74.980469c-48.351563 48.351562-74.980469 112.640625-74.980469 181.019531s26.628906 132.667969 74.980469 181.019531c48.351562 48.351563 112.640625 74.980469 181.019531 74.980469s132.667969-26.628906 181.019531-74.980469c48.351563-48.351562 74.980469-112.640625 74.980469-181.019531s-26.628906-132.667969-74.980469-181.019531zm-340.824219 21.214843c42.683594-42.6875 99.4375-66.195312 159.804688-66.195312 55.339844 0 107.632812 19.769531 148.84375 55.941406l-67.058594 67.058594h-11.785156v-25c0-19.300781-15.699219-35-35-35h-70c-19.300781 0-35 15.699219-35 35v25h-50c-24.8125 0-45 20.1875-45 45v150c0 14.132812 6.554688 26.757812 16.773438 35.011719l-21.832032 21.832031c-36.171875-41.210938-55.941406-93.503906-55.941406-148.84375 0-60.367188 23.507812-117.121094 66.195312-159.804688zm279.804688 86.804688c8.269531 0 15 6.730469 15 15v150c0 8.269531-6.730469 15-15 15h-205.785156l34.933594-34.9375c13.378906 12.363281 31.242187 19.9375 50.851562 19.9375 41.355469 0 75-33.644531 75-75 0-19.609375-7.570312-37.472656-19.933594-50.851562l39.148438-39.148438zm-255 165v-150c0-8.269531 6.730469-15 15-15h171.785156l-21.4375 21.4375c-9.285156-4.125-19.546875-6.4375-30.347656-6.4375-41.355469 0-75 33.644531-75 75 0 10.800781 2.3125 21.0625 6.4375 30.347656l-58.078125 58.082032c-4.945313-2.457032-8.359375-7.546876-8.359375-13.429688zm175-195h-80v-25c0-2.757812 2.242188-5 5-5h70c2.757812 0 5 2.242188 5 5zm5 120c0 24.8125-20.1875 45-45 45-11.335938 0-21.699219-4.222656-29.621094-11.164062l63.453125-63.457032c6.945313 7.921875 11.167969 18.285156 11.167969 29.621094zm-90 0c0-24.8125 20.1875-45 45-45 2.148438 0 4.261719.160156 6.332031.453125l-50.878906 50.878906c-.292969-2.070312-.453125-4.183593-.453125-6.332031zm204.804688 142.804688c-42.683594 42.6875-99.4375 66.195312-159.804688 66.195312-55.339844 0-107.632812-19.769531-148.84375-55.941406l33.058594-33.058594h235.785156c24.8125 0 45-20.1875 45-45v-150c0-23.457031-18.042969-42.765625-40.976562-44.8125l46.035156-46.03125c36.171875 41.210938 55.941406 93.503906 55.941406 148.84375 0 60.367188-23.507812 117.121094-66.195312 159.804688zm0 0"></path></svg>